#!OML:ASF E:\Steps\Project 1\Capture day 1\Session 2\Subject.ASF
:FULLY-SPECIFIED
:DEGREES
131
root 9.04071 16.2433 31.1374 -153.386 -1.04459 179.188
lowerback -31.9509 -1.53339 -5.42462
upperback -1.85993 -0.873057 -0.46205
thorax 14.5872 -1.08593 1.97611
lowerneck -0.976516 -2.43887 -1.81953
upperneck -8.93325 -3.32468 6.41536
head -2.53792 -1.98271 2.46424
rclavicle 4.42296e-015 7.15625e-015
rhumerus -25.7091 -18.6963 -84.2161
rradius 20.0801
rwrist 7.22279
rhand -7.46283 -51.7941
rfingers 7.12502
rthumb 18.4256 -80.9415
lclavicle 4.42296e-015 7.15625e-015
lhumerus -24.464 -0.685314 86.9378
lradius 15.0415
lwrist -11.1081
lhand -21.8884 -13.093
lfingers 7.12502
lthumb 4.51655 16.8389
rfemur -23.6201 8.22171 19.6191
rtibia 9.39213
rfoot -21.3958 -8.93208
rtoes -33.1454
lfemur -23.6944 -8.62772 -18.9317
ltibia 8.58433
lfoot -9.57465 4.45846
ltoes -39.2203
132
root 9.04106 16.2434 31.1366 -153.355 -1.02023 179.176
lowerback -31.9625 -1.49991 -5.4466
upperback -1.8839 -0.824734 -0.478119
thorax 14.56 -1.06686 1.98988
lowerneck -0.892187 -2.45829 -1.82268
upperneck -8.99716 -3.34856 6.42316
head -2.57348 -1.99708 2.47175
rclavicle 7.45443e-016 -2.18663e-014
rhumerus -25.781 -18.6568 -84.2101
rradius 20.1637
rwrist 7.11733
rhand -7.42519 -51.8268
rfingers 7.12502
rthumb 18.4618 -80.9707
lclavicle 7.45443e-016 -2.18663e-014
lhumerus -24.4908 -1.02479 87.0669
lradius 15.1163
lwrist -10.8281
lhand -22.8631 -12.8179
lfingers 7.12502
lthumb 3.5753 17.1319
rfemur -23.6632 8.2091 19.5915
rtibia 9.40585
rfoot -21.3626 -8.85478
rtoes -32.9891
lfemur -23.7276 -8.78879 -18.8986
ltibia 8.609
lfoot -9.62492 4.55534
ltoes -38.9677
133
root 9.04154 16.246 31.1356 -153.347 -1.01031 179.076
lowerback -31.9728 -1.53726 -5.56187
upperback -1.88046 -0.829328 -0.500086
thorax 14.5678 -1.07635 2.02556
lowerneck -0.915599 -2.45574 -1.8176
upperneck -8.99241 -3.3456 6.43989
head -2.56764 -1.9965 2.47568
rclavicle -5.06901e-015 -2.42517e-014
rhumerus -25.7917 -18.6448 -84.2278
rradius 20.2245
rwrist 7.10029
rhand -7.36007 -51.455
rfingers 7.12502
rthumb 18.5245 -80.593
lclavicle -5.06901e-015 -2.42517e-014
lhumerus -24.5068 -1.33096 87.1863
lradius 15.1853
lwrist -10.6494
lhand -21.8797 -13.2626
lfingers 7.12502
lthumb 4.52495 16.669
rfemur -23.6689 8.17305 19.4713
rtibia 9.37861
rfoot -21.3223 -8.93729
rtoes -33.4987
lfemur -23.7229 -8.75082 -19.0314
ltibia 8.59252
lfoot -9.54531 4.5001
ltoes -39.8053
134
root 9.04049 16.2461 31.1331 -153.331 -0.995465 178.99
lowerback -32.0002 -1.5827 -5.64216
upperback -1.87789 -0.857719 -0.516119
thorax 14.584 -1.09485 2.03858
lowerneck -0.945193 -2.45422 -1.77585
upperneck -8.98984 -3.34502 6.45695
head -2.56173 -1.99894 2.47308
rclavicle -3.42904e-015 -1.55052e-014
rhumerus -25.7702 -18.5274 -84.2748
rradius 20.237
rwrist 6.98975
rhand -7.45579 -50.9109
rfingers 7.12502
rthumb 18.4324 -80.0576
lclavicle -3.42904e-015 -1.55052e-014
lhumerus -24.459 -1.1706 87.1438
lradius 15.1568
lwrist -10.6982
lhand -21.9741 -12.7588
lfingers 7.12502
lthumb 4.4338 17.1748
rfemur -23.6764 8.09246 19.3799
rtibia 9.32545
rfoot -21.32 -8.96155
rtoes -33.8583
lfemur -23.7061 -8.64993 -19.1849
ltibia 8.56288
lfoot -9.52154 4.40124
ltoes -39.8829
135
root 9.04022 16.2446 31.1307 -153.335 -0.991966 178.998
lowerback -32.0063 -1.57393 -5.62647
upperback -1.87916 -0.851376 -0.521395
thorax 14.5846 -1.09115 2.02685
lowerneck -0.980404 -2.45228 -1.76727
upperneck -8.94883 -3.3422 6.47085
head -2.54165 -1.99678 2.47406
rclavicle -5.41688e-015 8.34896e-015
rhumerus -25.7646 -18.4317 -84.3092
rradius 20.2547
rwrist 6.80736
rhand -7.71976 -50.7122
rfingers 7.12502
rthumb 18.1785 -79.8828
lclavicle -5.41688e-015 8.34896e-015
lhumerus -24.4304 -1.09485 87.1276
lradius 15.1987
lwrist -10.6434
lhand -21.8174 -12.1935
lfingers 7.12502
lthumb 4.5851 17.7368
rfemur -23.6561 8.15471 19.3754
rtibia 9.36317
rfoot -21.3648 -8.89115
rtoes -33.2705
lfemur -23.6691 -8.66566 -19.1769
ltibia 8.51315
lfoot -9.53799 4.41001
ltoes -39.4024
136
root 9.04096 16.2445 31.1295 -153.354 -1.00451 179.007
lowerback -31.9733 -1.57288 -5.61866
upperback -1.88985 -0.855813 -0.52122
thorax 14.5582 -1.09206 2.02179
lowerneck -1.0063 -2.44394 -1.77113
upperneck -8.88662 -3.32998 6.46864
head -2.51665 -1.98767 2.47137
rclavicle -6.95746e-016 -1.35174e-014
rhumerus -25.7871 -18.3258 -84.345
rradius 20.3156
rwrist 6.66314
rhand -7.84011 -50.6342
rfingers 7.12502
rthumb 18.0627 -79.8155
lclavicle -6.95746e-016 -1.35174e-014
lhumerus -24.4233 -1.09071 87.1276
lradius 15.2459
lwrist -10.5776
lhand -21.5807 -11.8062
lfingers 7.12502
lthumb 4.81362 18.1191
rfemur -23.6057 8.31685 19.36
rtibia 9.37556
rfoot -21.3045 -8.96485
rtoes -32.9193
lfemur -23.6314 -8.71141 -19.1422
ltibia 8.47844
lfoot -9.56413 4.40979
ltoes -39.1432
137
root 9.04173 16.2455 31.1286 -153.358 -1.03949 178.987
lowerback -31.9615 -1.60411 -5.64279
upperback -1.88724 -0.887683 -0.521132
thorax 14.5585 -1.10735 2.02195
lowerneck -1.07316 -2.44507 -1.74424
upperneck -8.79759 -3.33188 6.46818
head -2.47496 -1.98596 2.46212
rclavicle 8.00108e-015 2.5842e-014
rhumerus -25.759 -18.3901 -84.3518
rradius 20.3055
rwrist 6.74975
rhand -7.85273 -50.6333
rfingers 7.12502
rthumb 18.0505 -79.8157
lclavicle 8.00108e-015 2.5842e-014
lhumerus -24.3583 -0.96245 87.0712
lradius 15.2376
lwrist -10.5352
lhand -21.4208 -11.8091
lfingers 7.12502
lthumb 4.96808 18.1127
rfemur -23.5687 8.39198 19.3294
rtibia 9.30069
rfoot -21.1959 -9.09538
rtoes -32.9885
lfemur -23.6302 -8.70714 -19.1608
ltibia 8.48299
lfoot -9.55449 4.34121
ltoes -39.1981
138
root 9.04104 16.2464 31.1233 -153.42 -1.01519 179.006
lowerback -31.9731 -1.58721 -5.60224
upperback -1.84835 -0.869114 -0.536105
thorax 14.6077 -1.09511 1.99147
lowerneck -1.1223 -2.46002 -1.69567
upperneck -8.76561 -3.35288 6.50079
head -2.45463 -1.99863 2.4624
rclavicle -4.52235e-015 2.54444e-014
rhumerus -25.7419 -18.5041 -84.3555
rradius 20.2918
rwrist 6.87348
rhand -7.83897 -50.7193
rfingers 7.12502
rthumb 18.0638 -79.9004
lclavicle -4.52235e-015 2.54444e-014
lhumerus -24.2942 -0.91298 87.0279
lradius 15.1874
lwrist -10.5985
lhand -21.3678 -11.7459
lfingers 7.12502
lthumb 5.01922 18.1747
rfemur -23.4665 8.44836 19.3422
rtibia 9.23501
rfoot -21.2218 -9.13955
rtoes -32.9823
lfemur -23.5021 -8.78336 -19.1474
ltibia 8.42358
lfoot -9.56287 4.42299
ltoes -38.9114
139
root 9.04025 16.2458 31.1208 -153.413 -1.02407 179.011
lowerback -31.9699 -1.5739 -5.57452
upperback -1.87538 -0.865504 -0.555615
thorax 14.5738 -1.09234 1.95662
lowerneck -1.05952 -2.47896 -1.64494
upperneck -8.79971 -3.37584 6.5495
head -2.47644 -2.01557 2.47248
rclavicle -4.22417e-015 2.38542e-015
rhumerus -25.795 -18.5934 -84.3396
rradius 20.2903
rwrist 6.9241
rhand -7.79724 -50.7578
rfingers 7.12502
rthumb 18.1039 -79.9353
lclavicle -4.22417e-015 2.38542e-015
lhumerus -24.2772 -0.792566 86.9571
lradius 15.1071
lwrist -10.6907
lhand -21.4231 -11.7106
lfingers 7.12502
lthumb 4.96585 18.2112
rfemur -23.4769 8.46102 19.3414
rtibia 9.29012
rfoot -21.3924 -9.16282
rtoes -32.8402
lfemur -23.491 -8.89666 -19.1124
ltibia 8.40716
lfoot -9.60434 4.55356
ltoes -38.669
140
root 9.04285 16.2494 31.1258 -153.406 -1.12581 178.958
lowerback -31.8357 -1.64106 -5.66918
upperback -1.93914 -0.939098 -0.536093
thorax 14.4467 -1.13008 2.00148
lowerneck -1.00222 -2.46248 -1.61999
upperneck -8.80489 -3.35176 6.53853
head -2.49013 -2.00412 2.46567
rclavicle 3.8763e-015 3.97569e-016
rhumerus -25.832 -18.685 -84.291
rradius 20.283
rwrist 7.01206
rhand -7.78791 -50.895
rfingers 7.12502
rthumb 18.1129 -80.0717
lclavicle 3.8763e-015 3.97569e-016
lhumerus -24.2574 -0.546334 86.9029
lradius 15.0604
lwrist -10.7178
lhand -20.8984 -11.1609
lfingers 7.12502
lthumb 5.47243 18.7484
rfemur -23.5032 8.49576 19.294
rtibia 9.32949
rfoot -21.4592 -9.24982
rtoes -32.5419
lfemur -23.5918 -8.75893 -19.1686
ltibia 8.53103
lfoot -9.63198 4.34462
ltoes -38.8182
141
root 9.03964 16.247 31.1219 -153.311 -1.0427 178.996
lowerback -31.9913 -1.60637 -5.60758
upperback -1.95951 -0.919542 -0.521528
thorax 14.4887 -1.12296 1.9881
lowerneck -0.99111 -2.44875 -1.64714
upperneck -8.78799 -3.33198 6.54288
head -2.48704 -1.99256 2.47156
rclavicle -1.68967e-015 2.34566e-014
rhumerus -25.8689 -18.6457 -84.2559
rradius 20.3362
rwrist 7.03899
rhand -7.76041 -51.0554
rfingers 7.12502
rthumb 18.1394 -80.2296
lclavicle -1.68967e-015 2.34566e-014
lhumerus -24.2785 -0.445064 86.9334
lradius 14.979
lwrist -11.0613
lhand -21.6447 -11.4649
lfingers 7.12502
lthumb 4.75182 18.4618
rfemur -23.6407 8.50178 19.2746
rtibia 9.35929
rfoot -21.4397 -9.10667
rtoes -32.3358
lfemur -23.6774 -8.67329 -19.169
ltibia 8.54044
lfoot -9.6421 4.38589
ltoes -39.4154
142
root 9.03831 16.2438 31.1193 -153.198 -0.931036 179.063
lowerback -32.1312 -1.54957 -5.54374
upperback -1.99409 -0.87552 -0.510944
thorax 14.5053 -1.10501 1.97968
lowerneck -0.995944 -2.45168 -1.68313
upperneck -8.74065 -3.33353 6.57096
head -2.46953 -1.99089 2.48596
rclavicle -4.07509e-015 -3.57812e-015
rhumerus -25.9356 -18.53 -84.2493
rradius 20.4057
rwrist 6.94757
rhand -7.72162 -51.1378
rfingers 7.12502
rthumb 18.1767 -80.3085
lclavicle -4.07509e-015 -3.57812e-015
lhumerus -24.3162 -0.530975 86.9955
lradius 15.0752
lwrist -10.8615
lhand -21.9052 -11.4972
lfingers 7.12502
lthumb 4.50029 18.435
rfemur -23.8182 8.42992 19.3366
rtibia 9.48035
rfoot -21.5025 -8.93551
rtoes -32.3413
lfemur -23.7855 -8.65822 -19.108
ltibia 8.54246
lfoot -9.63824 4.52676
ltoes -39.9141
143
root 9.03874 16.247 31.1144 -153.375 -1.00677 178.997
lowerback -32.0024 -1.60458 -5.61556
upperback -1.93417 -0.910038 -0.508283
thorax 14.5229 -1.11883 2.01067
lowerneck -1.05719 -2.43692 -1.70942
upperneck -8.68553 -3.31448 6.56914
head -2.4406 -1.97796 2.4867
rclavicle 3.97569e-016 -1.07344e-014
rhumerus -25.9121 -18.4592 -84.2691
rradius 20.4322
rwrist 6.84131
rhand -7.71497 -51.1822
rfingers 7.12502
rthumb 18.1831 -80.3523
lclavicle 3.97569e-016 -1.07344e-014
lhumerus -24.333 -0.798399 87.0878
lradius 15.1267
lwrist -10.7454
lhand -22.4082 -11.8556
lfingers 7.12502
lthumb 4.01462 18.0863
rfemur -23.5634 8.34869 19.3334
rtibia 9.47483
rfoot -21.5965 -9.00652
rtoes -32.4494
lfemur -23.5928 -8.82665 -19.1553
ltibia 8.57212
lfoot -9.67565 4.52407
ltoes -39.3855
144
root 9.03929 16.2479 31.1137 -153.379 -0.973101 178.939
lowerback -32.0281 -1.63367 -5.69022
upperback -1.90678 -0.914147 -0.516848
thorax 14.566 -1.12524 2.0391
lowerneck -1.10959 -2.4078 -1.68532
upperneck -8.67375 -3.27845 6.54518
head -2.42941 -1.95979 2.4723
rclavicle -7.05686e-015 2.14687e-014
rhumerus -25.844 -18.3572 -84.3164
rradius 20.4364
rwrist 6.80398
rhand -7.67026 -51.3124
rfingers 7.12502
rthumb 18.2261 -80.4785
lclavicle -7.05686e-015 2.14687e-014
lhumerus -24.3119 -1.01855 87.1457
lradius 15.2011
lwrist -10.5423
lhand -22.4899 -11.8526
lfingers 7.12502
lthumb 3.93566 18.0908
rfemur -23.6083 8.32416 19.2635
rtibia 9.53699
rfoot -21.6251 -9.02956
rtoes -32.7746
lfemur -23.6208 -8.79252 -19.2333
ltibia 8.65987
lfoot -9.73146 4.4685
ltoes -38.872
145
root 9.03954 16.247 31.1133 -153.314 -0.938413 178.913
lowerback -32.0764 -1.65104 -5.73177
upperback -1.93389 -0.927421 -0.521893
thorax 14.5555 -1.1364 2.0488
lowerneck -1.10773 -2.37895 -1.65774
upperneck -8.65164 -3.24014 6.51743
head -2.42477 -1.93974 2.45706
rclavicle -5.11871e-015 1.55052e-014
rhumerus -25.8508 -18.1739 -84.3783
rradius 20.4619
rwrist 6.73732
rhand -7.63297 -51.4853
rfingers 7.12502
rthumb 18.262 -80.6481
lclavicle -5.11871e-015 1.55052e-014
lhumerus -24.3537 -1.30687 87.2344
lradius 15.2324
lwrist -10.463
lhand -22.7223 -11.6323
lfingers 7.12502
lthumb 3.7113 18.3151
rfemur -23.7152 8.32035 19.2163
rtibia 9.51877
rfoot -21.5237 -9.05833
rtoes -33.1399
lfemur -23.7316 -8.60798 -19.3069
ltibia 8.75203
lfoot -9.79185 4.3758
ltoes -39.1801
